<?xml version="1.0" encoding="UTF-8"?>
<svg width="1200pt" height="1200pt" version="1.1" viewBox="0 0 1200 1200" xmlns="http://www.w3.org/2000/svg">
 <g>
  <path d="m1068.8 37.5h-937.5c-24.855 0.03125-48.684 9.918-66.258 27.492-17.574 17.574-27.461 41.402-27.492 66.258v675c0.03125 24.855 9.918 48.684 27.492 66.258 17.574 17.574 41.402 27.461 66.258 27.492h300v112.5h-93.75c-24.855 0.03125-48.684 9.918-66.258 27.492-17.574 17.574-27.461 41.402-27.492 66.258v56.25h712.5v-56.25c-0.03125-24.855-9.918-48.684-27.492-66.258-17.574-17.574-41.402-27.461-66.258-27.492h-93.75v-112.5h300c24.855-0.03125 48.684-9.918 66.258-27.492 17.574-17.574 27.461-41.402 27.492-66.258v-675c-0.03125-24.855-9.918-48.684-27.492-66.258-17.574-17.574-41.402-27.461-66.258-27.492zm-206.25 1012.5c14.918 0 29.227 5.9258 39.773 16.477 10.551 10.547 16.477 24.855 16.477 39.773v18.75h-637.5v-18.75c0-14.918 5.9258-29.227 16.477-39.773 10.547-10.551 24.855-16.477 39.773-16.477zm-131.25-37.5h-262.5v-112.5h262.5zm393.75-206.25c0 14.918-5.9258 29.227-16.477 39.773-10.547 10.551-24.855 16.477-39.773 16.477h-937.5c-14.918 0-29.227-5.9258-39.773-16.477-10.551-10.547-16.477-24.855-16.477-39.773v-675c0-14.918 5.9258-29.227 16.477-39.773 10.547-10.551 24.855-16.477 39.773-16.477h937.5c14.918 0 29.227 5.9258 39.773 16.477 10.551 10.547 16.477 24.855 16.477 39.773z"/>
  <path d="m1087.5 112.5h-975v637.5h975zm-37.5 600h-900v-562.5h900z"/>
  <path d="m656.25 806.25c0-14.918-5.9258-29.227-16.477-39.773-10.547-10.551-24.855-16.477-39.773-16.477s-29.227 5.9258-39.773 16.477c-10.551 10.547-16.477 24.855-16.477 39.773s5.9258 29.227 16.477 39.773c10.547 10.551 24.855 16.477 39.773 16.477s29.227-5.9258 39.773-16.477c10.551-10.547 16.477-24.855 16.477-39.773zm-56.25 18.75c-4.9727 0-9.7422-1.9766-13.258-5.4922-3.5156-3.5156-5.4922-8.2852-5.4922-13.258s1.9766-9.7422 5.4922-13.258c3.5156-3.5156 8.2852-5.4922 13.258-5.4922s9.7422 1.9766 13.258 5.4922c3.5156 3.5156 5.4922 8.2852 5.4922 13.258s-1.9766 9.7422-5.4922 13.258c-3.5156 3.5156-8.2852 5.4922-13.258 5.4922z"/>
  <path d="m412.5 581.25h75v56.25h225v-56.25h75v56.25h225v-150h-93.75v-150c-0.03125-24.855-9.918-48.684-27.492-66.258-17.574-17.574-41.402-27.461-66.258-27.492h-112.5v-56.25h-225v56.25h-112.5c-24.855 0.03125-48.684 9.918-66.258 27.492-17.574 17.574-27.461 41.402-27.492 66.258v150h-93.75v150h225zm262.5 18.75h-150v-75h150zm300 0h-150v-75h150zm-150-318.75c14.918 0 29.227 5.9258 39.773 16.477 10.551 10.547 16.477 24.855 16.477 39.773v150h-93.75v56.25h-75v-56.25h-93.75v-150h93.75v-56.25zm-300-56.25h150v75h-150zm-206.25 112.5c0-14.918 5.9258-29.227 16.477-39.773 10.547-10.551 24.855-16.477 39.773-16.477h112.5v56.25h93.75v150h-93.75v56.25h-75v-56.25h-93.75zm56.25 262.5h-150v-75h150z"/>
 </g>
</svg>
