<?xml version="1.0" encoding="UTF-8"?>
<svg width="1200pt" height="1200pt" version="1.1" viewBox="0 0 1200 1200" xmlns="http://www.w3.org/2000/svg">
 <g>
  <path d="m525 225h150v75h-150z"/>
  <path d="m412.5 543.75h75v-56.25h93.75v-150h-93.75v-56.25h-112.5c-14.918 0-29.227 5.9258-39.773 16.477-10.551 10.547-16.477 24.855-16.477 39.773v150h93.75z"/>
  <path d="m825 525h150v75h-150z"/>
  <path d="m525 525h150v75h-150z"/>
  <path d="m618.75 487.5h93.75v56.25h75v-56.25h93.75v-150c0-14.918-5.9258-29.227-16.477-39.773-10.547-10.551-24.855-16.477-39.773-16.477h-112.5v56.25h-93.75z"/>
  <path d="m225 525h150v75h-150z"/>
  <path d="m618.75 806.25c0 10.355-8.3945 18.75-18.75 18.75s-18.75-8.3945-18.75-18.75 8.3945-18.75 18.75-18.75 18.75 8.3945 18.75 18.75"/>
  <path d="m468.75 900h262.5v112.5h-262.5z"/>
  <path d="m1125 131.25c0-14.918-5.9258-29.227-16.477-39.773-10.547-10.551-24.855-16.477-39.773-16.477h-937.5c-14.918 0-29.227 5.9258-39.773 16.477-10.551 10.547-16.477 24.855-16.477 39.773v675c0 14.918 5.9258 29.227 16.477 39.773 10.547 10.551 24.855 16.477 39.773 16.477h468.75c-20.098 0-38.664-10.723-48.715-28.125-10.047-17.402-10.047-38.848 0-56.25 10.051-17.402 28.617-28.125 48.715-28.125h-487.5v-637.5h975v637.5h-487.5c20.098 0 38.664 10.723 48.715 28.125 10.047 17.402 10.047 38.848 0 56.25-10.051 17.402-28.617 28.125-48.715 28.125h468.75c14.918 0 29.227-5.9258 39.773-16.477 10.551-10.547 16.477-24.855 16.477-39.773z"/>
  <path d="m281.25 1106.2v18.75h637.5v-18.75c0-14.918-5.9258-29.227-16.477-39.773-10.547-10.551-24.855-16.477-39.773-16.477h-525c-14.918 0-29.227 5.9258-39.773 16.477-10.551 10.547-16.477 24.855-16.477 39.773z"/>
  <path d="m150 712.5h900v-562.5h-900zm37.5-225h93.75v-150c0.03125-24.855 9.918-48.684 27.492-66.258 17.574-17.574 41.402-27.461 66.258-27.492h112.5v-56.25h225v56.25h112.5c24.855 0.03125 48.684 9.918 66.258 27.492 17.574 17.574 27.461 41.402 27.492 66.258v150h93.75v150h-225v-56.25h-75v56.25h-225v-56.25h-75v56.25h-225z"/>
 </g>
</svg>
