<?xml version="1.0" encoding="UTF-8"?>
<svg width="3600pt" height="3600pt" version="1.1" viewBox="0 0 3600 3600" xmlns="http://www.w3.org/2000/svg">
 <path d="m2736 1378.8v-432l-928.8 928.8-86.398-86.398 928.8-928.8h-432v-118.8h637.2v637.2zm118.8 1044v-586.8h-118.8v583.2c0 172.8-140.4 316.8-316.8 316.8h-1242c-172.8 0-316.8-140.4-316.8-316.8v-1242c0-172.8 140.4-316.8 316.8-316.8h579.6v-118.8h-579.6c-241.2 0-435.6 194.4-435.6 435.6v1242c0 241.2 194.4 435.6 435.6 435.6h1242c241.2 0 435.6-194.4 435.6-432z"/>
</svg>
